<svg viewBox="0 0 720 520" xmlns="http://www.w3.org/2000/svg" font-family="'PingFang SC','Microsoft YaHei',sans-serif">
  <defs>
    <linearGradient id="wall" x1="0" y1="0" x2="0" y2="1">
      <stop offset="0" stop-color="#8cc63f" stop-opacity="0.55"/>
      <stop offset="1" stop-color="#7ab836" stop-opacity="0.4"/>
    </linearGradient>
    <linearGradient id="cyto" x1="0" y1="0" x2="0" y2="1">
      <stop offset="0" stop-color="#eaf7e0"/>
      <stop offset="1" stop-color="#d9efc9"/>
    </linearGradient>
    <linearGradient id="vacuole" x1="0" y1="0" x2="0" y2="1">
      <stop offset="0" stop-color="#e8e0f7"/>
      <stop offset="1" stop-color="#d5c8ee"/>
    </linearGradient>
    <linearGradient id="nucleus" x1="0" y1="0" x2="0" y2="1">
      <stop offset="0" stop-color="#f9e3d2"/>
      <stop offset="1" stop-color="#f2cfb4"/>
    </linearGradient>
    <linearGradient id="chloro" x1="0" y1="0" x2="0" y2="1">
      <stop offset="0" stop-color="#66bb6a"/>
      <stop offset="1" stop-color="#43a047"/>
    </linearGradient>
    <linearGradient id="mito" x1="0" y1="0" x2="0" y2="1">
      <stop offset="0" stop-color="#f8bbd0"/>
      <stop offset="1" stop-color="#f48fb1"/>
    </linearGradient>
  </defs>
  <rect x="0" y="0" width="720" height="520" fill="#ffffff"/>
  <rect x="42" y="44" width="636" height="432" rx="26" fill="url(#wall)" stroke="#6fae2e" stroke-width="7"/>
  <rect x="72" y="74" width="576" height="372" rx="18" fill="url(#cyto)" stroke="none"/>
  <rect x="70" y="72" width="580" height="376" rx="18" fill="none" stroke="#e8963c" stroke-width="3.5" stroke-dasharray="10 6"/>
  <ellipse cx="330" cy="272" rx="168" ry="112" fill="url(#vacuole)" stroke="#8d78c8" stroke-width="3"/>
  <ellipse cx="300" cy="240" rx="70" ry="38" fill="none" stroke="#b3a4dd" stroke-width="2" opacity="0.6"/>
  <ellipse cx="365" cy="305" rx="46" ry="24" fill="none" stroke="#b3a4dd" stroke-width="2" opacity="0.6"/>
  <g>
    <ellipse cx="168" cy="150" rx="62" ry="34" fill="url(#chloro)" stroke="#2e7d32" stroke-width="2.5"/>
    <line x1="138" y1="150" x2="198" y2="150" stroke="#1b5e20" stroke-width="2.5" opacity="0.75"/>
    <line x1="148" y1="140" x2="188" y2="140" stroke="#1b5e20" stroke-width="2" opacity="0.5"/>
    <line x1="148" y1="160" x2="188" y2="160" stroke="#1b5e20" stroke-width="2" opacity="0.5"/>
  </g>
  <g>
    <ellipse cx="180" cy="398" rx="50" ry="28" fill="url(#chloro)" stroke="#2e7d32" stroke-width="2.5"/>
    <line x1="155" y1="398" x2="205" y2="398" stroke="#1b5e20" stroke-width="2.5" opacity="0.75"/>
    <line x1="163" y1="389" x2="197" y2="389" stroke="#1b5e20" stroke-width="2" opacity="0.5"/>
    <line x1="163" y1="407" x2="197" y2="407" stroke="#1b5e20" stroke-width="2" opacity="0.5"/>
  </g>
  <g>
    <ellipse cx="512" cy="196" rx="66" ry="48" fill="url(#nucleus)" stroke="#d9853b" stroke-width="3"/>
    <circle cx="512" cy="198" r="16" fill="#c96f2e" opacity="0.85"/>
    <ellipse cx="492" cy="178" rx="12" ry="8" fill="none" stroke="#d9853b" stroke-width="1.6" opacity="0.5"/>
    <ellipse cx="535" cy="214" rx="10" ry="7" fill="none" stroke="#d9853b" stroke-width="1.6" opacity="0.5"/>
  </g>
  <g>
    <ellipse cx="430" cy="92" rx="38" ry="22" fill="url(#mito)" stroke="#c2185b" stroke-width="2.5"/>
    <path d="M406 92 q8 -8 16 0 q8 8 16 0" fill="none" stroke="#ad1457" stroke-width="2" opacity="0.7"/>
  </g>
  <g>
    <ellipse cx="420" cy="396" rx="42" ry="24" fill="url(#mito)" stroke="#c2185b" stroke-width="2.5"/>
    <path d="M394 396 q8 -9 16 0 q8 9 16 0" fill="none" stroke="#ad1457" stroke-width="2" opacity="0.7"/>
    <path d="M398 388 q7 -6 14 0" fill="none" stroke="#ad1457" stroke-width="1.8" opacity="0.6"/>
  </g>
  <g stroke="#4a5568" stroke-width="1.6" fill="none">
    <line x1="110" y1="55" x2="110" y2="30"/>
    <line x1="120" y1="72" x2="120" y2="48"/>
    <line x1="600" y1="196" x2="648" y2="120"/>
    <line x1="560" y1="236" x2="648" y2="236"/>
    <line x1="330" y1="160" x2="330" y2="120"/>
    <line x1="400" y1="96" x2="560" y2="96"/>
    <line x1="460" y1="408" x2="560" y2="430"/>
    <line x1="100" y1="150" x2="100" y2="120"/>
  </g>
  <g font-size="17" fill="#2d3748" font-weight="600">
    <text x="110" y="22" text-anchor="middle">细胞壁</text>
    <text x="648" y="108" text-anchor="start">细胞核</text>
    <text x="648" y="244" text-anchor="start">核仁</text>
    <text x="330" y="110" text-anchor="middle">液泡（细胞液）</text>
    <text x="560" y="88" text-anchor="start">线粒体</text>
    <text x="560" y="442" text-anchor="start">线粒体</text>
    <text x="100" y="110" text-anchor="middle">叶绿体</text>
    <text x="150" y="452" text-anchor="middle">细胞质</text>
    <text x="72" y="74" dy="0" font-size="15" fill="#6fae2e" font-weight="500">细胞膜（虚线）</text>
  </g>
</svg>
